<svg width="43" height="43" viewBox="0 0 43 43" fill="none" xmlns="http://www.w3.org/2000/svg">
<path d="M39.5423 25.773C39.5423 25.7566 39.5259 25.7566 39.5259 25.7401C39.4201 25.442 39.294 25.1515 39.1485 24.8706L32.3399 9.35031C32.2718 9.20314 32.1773 9.06969 32.061 8.95656C31.5734 8.46794 30.9942 8.08029 30.3565 7.8158C29.7189 7.5513 29.0353 7.41516 28.345 7.41516C27.6547 7.41516 26.9712 7.5513 26.3335 7.8158C25.6959 8.08029 25.1167 8.46794 24.629 8.95656C24.5088 9.07737 24.4136 9.2207 24.3488 9.37835C24.2841 9.53601 24.2511 9.70488 24.2517 9.87531V14.6331H19.0017V9.87531C19.0023 9.70488 18.9692 9.53601 18.9045 9.37835C18.8397 9.2207 18.7445 9.07737 18.6243 8.95656C18.1367 8.46794 17.5575 8.08029 16.9198 7.8158C16.2822 7.5513 15.5986 7.41516 14.9083 7.41516C14.218 7.41516 13.5344 7.5513 12.8968 7.8158C12.2592 8.08029 11.6799 8.46794 11.1923 8.95656C11.0761 9.06969 10.9815 9.20314 10.9134 9.35031L4.10479 24.8542C3.95934 25.1351 3.83327 25.4256 3.72745 25.7237C3.72745 25.7401 3.71104 25.7401 3.71104 25.7566C3.32435 26.8386 3.17913 27.9921 3.28557 29.1363C3.39202 30.2804 3.74755 31.3874 4.32723 32.3795C4.9069 33.3716 5.69667 34.2249 6.64111 34.8794C7.58555 35.5339 8.66178 35.9738 9.79427 36.1682C10.9268 36.3626 12.0881 36.3069 13.1967 36.0048C14.3054 35.7028 15.3345 35.1618 16.2119 34.4198C17.0893 33.6778 17.7936 32.7528 18.2756 31.7097C18.7575 30.6665 19.0053 29.5306 19.0017 28.3816V17.2581H24.2517V28.3816C24.2456 29.5313 24.4914 30.6684 24.9717 31.713C25.4521 32.7576 26.1553 33.6843 27.0321 34.4281C27.9088 35.1719 28.9378 35.7147 30.0467 36.0183C31.1556 36.322 32.3175 36.3792 33.4509 36.1858C34.5843 35.9924 35.6615 35.5533 36.6071 34.8991C37.5526 34.245 38.3434 33.3917 38.9239 32.3993C39.5045 31.4069 39.8607 30.2994 39.9675 29.1547C40.0743 28.0099 39.9292 26.8556 39.5423 25.773ZM16.065 30.2026C15.5769 31.491 14.6019 32.5358 13.3505 33.1119C12.099 33.6879 10.6712 33.7489 9.37513 33.2817C8.07907 32.8145 7.01859 31.8566 6.42243 30.6145C5.82627 29.3725 5.74221 27.9459 6.18839 26.6425L6.4837 25.9698C7.03021 24.9343 7.90719 24.1113 8.97522 23.6314C10.0432 23.1516 11.241 23.0426 12.3781 23.3217C13.5152 23.6007 14.5264 24.2519 15.2509 25.1717C15.9754 26.0915 16.3717 27.2271 16.3767 28.398C16.379 29.0131 16.2735 29.6239 16.065 30.2026V30.2026ZM33.9149 33.3526C33.1219 33.64 32.2712 33.732 31.4351 33.6208C30.5989 33.5097 29.8018 33.1988 29.1113 32.7143C28.4208 32.2298 27.8572 31.586 27.4682 30.8376C27.0792 30.0891 26.8763 29.2579 26.8767 28.4144C26.8817 27.2435 27.2779 26.1079 28.0024 25.1881C28.7269 24.2684 29.7381 23.6172 30.8752 23.3381C32.0123 23.059 33.2101 23.168 34.2781 23.6478C35.3461 24.1277 36.2231 24.9507 36.7696 25.9862L37.0649 26.6589C37.5297 27.9645 37.4593 29.4009 36.8692 30.6548C36.2791 31.9088 35.2172 32.8785 33.9149 33.3526V33.3526Z" fill="#0079FE"/>
</svg>
