<svg width="175" height="25" viewBox="0 0 175 25" fill="none" xmlns="http://www.w3.org/2000/svg">
<path d="M0.472 1.6H8.6C11.3733 1.6 13.432 2.25067 14.776 3.552C16.12 4.832 16.792 6.82667 16.792 9.536V16.064C16.792 18.7733 16.12 20.7787 14.776 22.08C13.432 23.36 11.3733 24 8.6 24H0.472V19.936H2.584V5.632H0.472V1.6ZM8.6 19.968C10.072 19.968 11.096 19.6267 11.672 18.944C12.2693 18.24 12.568 17.152 12.568 15.68V9.536C12.568 8.256 12.2693 7.28533 11.672 6.624C11.096 5.96267 10.072 5.632 8.6 5.632H6.808V19.968H8.6ZM24.6418 17.376C24.6631 17.8453 24.7698 18.2827 24.9618 18.688C25.1751 19.072 25.4524 19.4133 25.7938 19.712C26.1564 19.9893 26.5618 20.2133 27.0098 20.384C27.4791 20.5333 27.9698 20.608 28.4818 20.608C29.4844 20.608 30.2524 20.4373 30.7858 20.096C31.3191 19.7333 31.7031 19.3067 31.9378 18.816L35.3938 20.736C35.2018 21.1413 34.9351 21.568 34.5938 22.016C34.2524 22.4427 33.8044 22.8373 33.2498 23.2C32.7164 23.5627 32.0551 23.8613 31.2658 24.096C30.4978 24.3307 29.5911 24.448 28.5458 24.448C27.3511 24.448 26.2631 24.256 25.2818 23.872C24.3004 23.488 23.4471 22.9333 22.7218 22.208C22.0178 21.4827 21.4631 20.5973 21.0578 19.552C20.6738 18.5067 20.4818 17.3227 20.4818 16V15.808C20.4818 14.592 20.6844 13.4827 21.0898 12.48C21.5164 11.4773 22.0924 10.624 22.8177 9.92C23.5431 9.216 24.3858 8.672 25.3458 8.288C26.3271 7.88267 27.3724 7.68 28.4818 7.68C29.8471 7.68 31.0204 7.92533 32.0018 8.416C32.9831 8.88533 33.7938 9.49333 34.4338 10.24C35.0738 10.9653 35.5431 11.776 35.8418 12.672C36.1404 13.5467 36.2898 14.4 36.2898 15.232V17.376H24.6418ZM28.4498 11.328C27.4258 11.328 26.5938 11.5947 25.9538 12.128C25.3138 12.64 24.8978 13.2373 24.7058 13.92H32.1938C32.0658 13.1733 31.6604 12.5547 30.9778 12.064C30.3164 11.5733 29.4738 11.328 28.4498 11.328ZM39.5635 8.128H43.9155L47.6595 22.08H48.2355L51.9795 8.128H56.3315L51.7875 24H44.1075L39.5635 8.128ZM60.5973 1.6H74.9333V5.632H64.8213V10.752H74.7413V14.784H64.8213V24H60.5973V1.6ZM80.159 20.16H85.535V11.968H80.543V8.128H89.567V20.16H94.175V24H80.159V20.16ZM90.559 3.424C90.559 3.85067 90.4737 4.256 90.303 4.64C90.1537 5.00267 89.9403 5.32267 89.663 5.6C89.3857 5.856 89.055 6.06933 88.671 6.24C88.3083 6.38933 87.9243 6.464 87.519 6.464C87.0923 6.464 86.6977 6.38933 86.335 6.24C85.9723 6.06933 85.6523 5.856 85.375 5.6C85.0977 5.32267 84.8737 5.00267 84.703 4.64C84.5537 4.256 84.479 3.85067 84.479 3.424C84.479 2.99733 84.5537 2.60267 84.703 2.24C84.8737 1.856 85.0977 1.536 85.375 1.28C85.6523 1.00267 85.9723 0.789332 86.335 0.639999C86.6977 0.469332 87.0923 0.383999 87.519 0.383999C87.9243 0.383999 88.3083 0.469332 88.671 0.639999C89.055 0.789332 89.3857 1.00267 89.663 1.28C89.9403 1.536 90.1537 1.856 90.303 2.24C90.4737 2.60267 90.559 2.99733 90.559 3.424ZM103.497 24H99.4648V8.128H103.497V10.496H104.073C104.435 9.6 105.022 8.90667 105.833 8.416C106.643 7.92533 107.593 7.68 108.681 7.68C109.449 7.68 110.163 7.808 110.825 8.064C111.507 8.29867 112.105 8.672 112.617 9.184C113.129 9.696 113.523 10.3467 113.801 11.136C114.099 11.9253 114.249 12.864 114.249 13.952V24H110.217V14.976C110.217 13.8453 109.939 12.96 109.385 12.32C108.851 11.6587 108.073 11.328 107.049 11.328C105.854 11.328 104.958 11.7333 104.361 12.544C103.785 13.3333 103.497 14.4 103.497 15.744V24ZM130.451 21.696H129.875C129.704 22.0587 129.491 22.4107 129.235 22.752C129 23.072 128.68 23.36 128.275 23.616C127.891 23.872 127.421 24.0747 126.867 24.224C126.333 24.3733 125.683 24.448 124.915 24.448C123.933 24.448 123.016 24.2773 122.163 23.936C121.331 23.5733 120.595 23.0507 119.955 22.368C119.336 21.664 118.845 20.8107 118.483 19.808C118.141 18.8053 117.971 17.6533 117.971 16.352V15.776C117.971 14.496 118.152 13.3547 118.515 12.352C118.899 11.3493 119.411 10.5067 120.051 9.824C120.712 9.12 121.469 8.58667 122.323 8.224C123.197 7.86133 124.115 7.68 125.075 7.68C126.355 7.68 127.368 7.92533 128.115 8.416C128.861 8.88533 129.448 9.55733 129.875 10.432H130.451V1.6H134.483V24H130.451V21.696ZM126.227 20.608C127.485 20.608 128.499 20.2133 129.267 19.424C130.056 18.6133 130.451 17.5573 130.451 16.256V15.872C130.451 14.5707 130.056 13.5253 129.267 12.736C128.499 11.9253 127.485 11.52 126.227 11.52C124.968 11.52 123.944 11.9147 123.155 12.704C122.387 13.472 122.003 14.528 122.003 15.872V16.256C122.003 17.6 122.387 18.6667 123.155 19.456C123.944 20.224 124.968 20.608 126.227 20.608ZM142.204 17.376C142.226 17.8453 142.332 18.2827 142.524 18.688C142.738 19.072 143.015 19.4133 143.356 19.712C143.719 19.9893 144.124 20.2133 144.572 20.384C145.042 20.5333 145.532 20.608 146.044 20.608C147.047 20.608 147.815 20.4373 148.348 20.096C148.882 19.7333 149.266 19.3067 149.5 18.816L152.956 20.736C152.764 21.1413 152.498 21.568 152.156 22.016C151.815 22.4427 151.367 22.8373 150.812 23.2C150.279 23.5627 149.618 23.8613 148.828 24.096C148.06 24.3307 147.154 24.448 146.108 24.448C144.914 24.448 143.826 24.256 142.844 23.872C141.863 23.488 141.01 22.9333 140.284 22.208C139.58 21.4827 139.026 20.5973 138.62 19.552C138.236 18.5067 138.044 17.3227 138.044 16V15.808C138.044 14.592 138.247 13.4827 138.652 12.48C139.079 11.4773 139.655 10.624 140.38 9.92C141.106 9.216 141.948 8.672 142.908 8.288C143.89 7.88267 144.935 7.68 146.044 7.68C147.41 7.68 148.583 7.92533 149.564 8.416C150.546 8.88533 151.356 9.49333 151.996 10.24C152.636 10.9653 153.106 11.776 153.404 12.672C153.703 13.5467 153.852 14.4 153.852 15.232V17.376H142.204ZM146.012 11.328C144.988 11.328 144.156 11.5947 143.516 12.128C142.876 12.64 142.46 13.2373 142.268 13.92H149.756C149.628 13.1733 149.223 12.5547 148.54 12.064C147.879 11.5733 147.036 11.328 146.012 11.328ZM157.478 8.128H164.198V10.432H164.774C165.073 9.55733 165.574 8.88533 166.278 8.416C167.003 7.92533 167.867 7.68 168.87 7.68C170.449 7.68 171.718 8.18133 172.678 9.184C173.638 10.1653 174.118 11.6693 174.118 13.696V14.4L169.958 14.784V14.336C169.958 13.4613 169.734 12.768 169.286 12.256C168.838 11.7227 168.166 11.456 167.27 11.456C166.374 11.456 165.67 11.7653 165.158 12.384C164.646 13.0027 164.39 13.888 164.39 15.04V20.16H168.038V24H157.094V20.16H160.358V11.968H157.478V8.128Z" fill="white"/>
</svg>
